<?xml version="1.0" encoding="utf-8"?>
<!-- Generator: Adobe Illustrator 28.3.0, SVG Export Plug-In . SVG Version: 6.00 Build 0)  -->
<svg version="1.1" id="Layer_1" xmlns="http://www.w3.org/2000/svg" xmlns:xlink="http://www.w3.org/1999/xlink" x="0px" y="0px"
	 viewBox="0 0 162.1 148.5" style="enable-background:new 0 0 162.1 148.5;" xml:space="preserve">
<style type="text/css">
	.st0{fill-rule:evenodd;clip-rule:evenodd;fill:#1DC2EA;}
	.st1{fill:#0E1010;}
</style>
<path class="st0" d="M106,17.6c28.4,9.8,43.5,40.7,33.7,69c-9.8,28.4-40.6,43.5-69,33.7c-28.4-9.8-43.5-40.6-33.7-69
	C46.8,22.9,77.7,7.8,106,17.6L106,17.6z"/>
<path class="st1" d="M148.1,53c-0.7,0-1.3,0-2,0.1c0-15.3-12.5-27.7-27.7-27.7c-4.4,0-8.6,1-12.4,2.9C100.8,11.5,85.3,0,67.4,0
	C45.2,0,27.1,18.1,27.1,40.4c0,0.9,0,1.8,0.1,2.7c-2.4-1-4.9-1.5-7.5-1.5C8.8,41.6,0,50.4,0,61.3c0,10.8,8.8,19.6,19.7,19.6h36.7
	l-4.8,20c-0.2,0.9,0.1,1.8,0.7,2.4c0.6,0.6,1.6,0.8,2.4,0.5l19-6l-13.3,47.6c-0.3,1.2,0.3,2.4,1.4,2.9c0.3,0.1,0.6,0.2,1,0.2
	c0.8,0,1.6-0.4,2.1-1.2l39.7-66.5h43.6c7.7,0,14-6.2,14-13.9C162.1,59.2,155.8,53,148.1,53z M79.6,94.7c0.2-0.9,0-1.8-0.7-2.4
	c-0.5-0.4-1.1-0.7-1.7-0.7c-0.2,0-0.5,0-0.7,0.1l-19.2,6l10.6-44.1h24.2l-9.5,22.7c-0.4,0.9-0.2,1.9,0.4,2.6c0.6,0.7,1.6,1,2.5,0.7
	l17.2-5.4L70,129.1L79.6,94.7z M148.1,76h-40.6l2.8-4.7l0,0c0,0,0,0,0,0l0,0c0.1-0.1,0.1-0.2,0.1-0.3c0.1-0.1,0.1-0.2,0.1-0.4
	c0-0.1,0-0.2,0-0.3c0-0.1,0-0.3,0-0.4c0-0.1-0.1-0.3-0.1-0.4c0-0.1,0-0.2-0.1-0.3c-0.1-0.2-0.2-0.3-0.3-0.5c0-0.1-0.1-0.1-0.1-0.2
	c0,0,0,0,0,0c0,0,0,0,0,0c-0.1-0.1-0.1-0.2-0.2-0.2c0,0,0,0,0,0c-0.1-0.1-0.1-0.1-0.2-0.2c0,0-0.1-0.1-0.1-0.1c0,0-0.1,0-0.1-0.1
	c-0.6-0.4-1.3-0.5-2-0.2l-18.3,5.8l8.9-21.3c0.3-0.8,0.2-1.6-0.2-2.3c-0.5-0.7-1.2-1.1-2-1.1H66c-0.6,0-1.1,0.2-1.5,0.5c0,0,0,0,0,0
	c-0.1,0.1-0.2,0.2-0.3,0.2c0,0-0.1,0.1-0.1,0.1c-0.1,0.1-0.1,0.1-0.2,0.2c-0.1,0.1-0.1,0.2-0.2,0.3c0,0,0,0,0,0.1
	c-0.1,0.1-0.1,0.3-0.1,0.4l-0.1,0.2L57.5,76H19.7c-8.2,0-14.8-6.6-14.8-14.7c0-8.2,6.6-14.8,14.8-14.8c3.3,0,6.5,1.1,9,3.2
	c0.8,0.6,1.9,0.7,2.8,0.2c0.9-0.5,1.3-1.6,1.1-2.6c-0.4-2-0.6-4.3-0.6-6.8C32,20.8,47.9,4.9,67.4,4.9c16.7,0,31,11.4,34.7,27.7
	c0.2,0.8,0.7,1.4,1.5,1.7c0.8,0.3,1.6,0.2,2.3-0.2c3.7-2.5,8-3.8,12.5-3.8c12.6,0,22.8,10.3,22.8,22.9c0,1-0.1,2-0.2,3
	c-0.1,0.9,0.3,1.7,1.1,2.2s1.7,0.6,2.5,0.2c1-0.5,2.1-0.7,3.5-0.7c5,0,9.1,4.1,9.1,9.1C157.2,71.9,153.1,76,148.1,76z"/>
</svg>
